<svg width="100" height="100" viewBox="0 0 100 100" fill="none" xmlns="http://www.w3.org/2000/svg">
<path d="M45.1902 48.4962C45.1902 48.4962 49.9228 48.1366 49.9228 42.4738C49.9228 36.8158 46.713 34.0266 41.807 34.0266L25 34V65.2687H42.1978C42.1978 65.2687 50.7967 65.5408 50.7967 55.8881C50.7967 55.8881 51.4283 48.4962 45.1902 48.4962ZM31.2537 38.6903H39.8527C39.8527 38.6903 42.795 38.7388 42.795 42.5536C42.795 46.5075 39.8527 46.5075 39.8527 46.5075H31.2537V38.6903ZM40.6344 60.5784H31.2537V51.1978H40.6344C40.6344 51.1978 45.3247 51.2463 45.3247 55.8881C45.3247 60.53 41.3098 60.5784 40.6344 60.5784Z" fill="#005CFF"/>
<path d="M64.0863 41.8179C52.3402 41.8179 52.3605 53.5437 52.3605 53.5437C52.3605 53.5437 51.5788 65.2695 64.0863 65.2695C64.0863 65.2695 75.0304 65.2695 75.0304 55.8888H68.7766C68.7766 55.8888 68.7766 60.5791 64.0863 60.5791C64.0863 60.5791 59.396 60.5791 59.396 54.3254C59.396 54.3254 71.9035 54.3254 75.0304 54.3254C75.0304 51.1985 75.0304 41.8179 64.0863 41.8179ZM59.396 51.1985C59.396 51.1985 59.2928 46.5082 64.0863 46.5082C68.8783 46.5082 68.7766 51.1985 68.7766 51.1985H59.396Z" fill="#005CFF"/>
<path d="M70.3405 37.1272H57.833V40.254H70.3405V37.1272Z" fill="#005CFF"/>
</svg>
